<?xml version="1.0" standalone="no"?>
<!DOCTYPE svg PUBLIC "-//W3C//DTD SVG 20010904//EN"
 "http://www.w3.org/TR/2001/REC-SVG-20010904/DTD/svg10.dtd">
<svg version="1.0" xmlns="http://www.w3.org/2000/svg"
 width="512.000000pt" height="512.000000pt" viewBox="0 0 512.000000 512.000000"
 preserveAspectRatio="xMidYMid meet">
<metadata>
Created by potrace 1.14, written by Peter Selinger 2001-2017
</metadata>
<g transform="translate(0.000000,512.000000) scale(0.100000,-0.100000)"
fill="#000000" stroke="none">
<path d="M2499 4210 c-54 -57 -162 -223 -229 -354 -208 -408 -310 -907 -281
-1377 6 -89 10 -164 8 -165 -1 -1 -29 29 -61 67 -33 38 -109 117 -170 177
-246 239 -488 403 -808 546 -187 83 -462 160 -619 173 -63 5 -69 4 -93 -20
-30 -30 -31 -41 -11 -167 51 -313 188 -654 377 -937 26 -40 48 -75 48 -78 0
-3 -44 -5 -97 -5 -155 0 -421 -46 -509 -87 -31 -14 -54 -49 -54 -82 0 -44 158
-250 293 -383 361 -353 863 -583 1396 -639 216 -22 531 2 716 55 74 21 244 19
330 -4 162 -44 252 -54 485 -54 173 -1 250 3 335 17 630 106 1164 422 1497
888 69 96 76 119 55 165 -14 28 -25 36 -84 53 -150 44 -322 71 -465 71 -54 0
-98 2 -98 5 0 3 22 38 48 78 189 283 326 624 377 937 20 126 19 137 -11 167
-24 24 -30 25 -92 19 -294 -30 -722 -192 -1012 -384 -201 -132 -435 -335 -575
-500 -33 -39 -61 -69 -62 -68 -1 1 2 72 8 157 31 446 -71 960 -271 1355 -69
136 -197 339 -245 387 -41 40 -79 37 -126 -13z"/>
</g>
</svg>
