<?xml version="1.0" standalone="no"?>
<!DOCTYPE svg PUBLIC "-//W3C//DTD SVG 20010904//EN"
 "http://www.w3.org/TR/2001/REC-SVG-20010904/DTD/svg10.dtd">
<svg version="1.0" xmlns="http://www.w3.org/2000/svg"
 width="512.000000pt" height="512.000000pt" viewBox="0 0 512.000000 512.000000"
 preserveAspectRatio="xMidYMid meet">
<metadata>
Created by potrace 1.14, written by Peter Selinger 2001-2017
</metadata>
<g transform="translate(0.000000,512.000000) scale(0.100000,-0.100000)"
fill="#000000" stroke="none">
<path d="M2495 4208 c-106 -116 -280 -435 -350 -638 -127 -369 -175 -677 -161
-1035 3 -93 9 -181 12 -195 5 -19 -8 -9 -51 40 -100 113 -266 272 -375 359
-318 255 -705 438 -1086 516 -164 33 -207 33 -241 -1 -24 -24 -25 -30 -19 -92
31 -305 187 -712 386 -1009 28 -40 50 -74 50 -76 0 -1 -44 -3 -97 -5 -119 -3
-228 -17 -348 -43 -239 -51 -259 -82 -156 -236 257 -382 708 -692 1219 -837
185 -53 342 -77 544 -83 202 -7 346 6 506 44 152 37 304 39 431 7 239 -61 577
-70 841 -24 600 105 1161 449 1463 896 101 151 80 182 -158 233 -120 26 -229
40 -347 43 -91 3 -112 8 -89 23 16 9 147 227 196 324 117 234 209 529 231 745
6 60 5 66 -19 90 -34 33 -72 34 -231 1 -238 -48 -384 -100 -639 -226 -297
-147 -553 -345 -799 -616 l-65 -72 5 213 c3 128 0 264 -7 342 -39 417 -191
857 -412 1188 -95 142 -118 166 -162 166 -28 0 -42 -8 -72 -42z"/>
</g>
</svg>
